<?xml version="1.0" standalone="no"?>
<!DOCTYPE svg PUBLIC "-//W3C//DTD SVG 20010904//EN"
 "http://www.w3.org/TR/2001/REC-SVG-20010904/DTD/svg10.dtd">
<svg version="1.0" xmlns="http://www.w3.org/2000/svg"
 width="768.000000pt" height="768.000000pt" viewBox="0 0 768.000000 768.000000"
 preserveAspectRatio="xMidYMid meet">
<metadata>
Created by potrace 1.10, written by Peter Selinger 2001-2011
</metadata>
<g transform="translate(0.000000,768.000000) scale(0.100000,-0.100000)"
fill="#ffffffff" stroke="none">
<path d="M1675 5794 c-321 -45 -538 -139 -712 -309 -123 -120 -224 -296 -254
-443 -5 -24 -11 -47 -14 -52 -3 -5 -15 -70 -25 -143 -19 -128 -20 -187 -18
-1308 l3 -1174 298 -3 297 -2 0 679 c0 557 2 681 13 690 10 8 304 12 1048 13
l1034 3 0 280 0 280 -1045 5 -1045 5 -3 177 c-3 218 12 316 63 422 30 59 114
154 159 178 95 51 148 70 276 100 41 10 246 14 830 18 l775 5 0 295 0 295
-790 1 c-624 1 -811 -1 -890 -12z"/>
<path d="M5245 5794 c-224 -29 -355 -66 -534 -151 -203 -97 -357 -231 -483
-419 -35 -52 -114 -210 -143 -284 -9 -25 -23 -60 -31 -78 -8 -18 -14 -40 -14
-50 0 -9 -6 -37 -14 -62 -51 -160 -76 -382 -76 -665 0 -595 132 -1014 412
-1306 67 -70 182 -166 218 -182 8 -4 29 -16 45 -26 69 -44 207 -103 315 -134
219 -63 372 -77 824 -77 508 0 622 17 846 124 204 97 367 293 439 527 49 160
55 205 55 429 0 174 -3 228 -17 285 -24 93 -46 163 -62 200 -8 17 -16 37 -19
45 -4 8 -15 29 -26 45 -11 17 -24 39 -29 50 -14 33 -99 123 -160 169 -91 71
-166 105 -321 148 -70 20 -105 22 -563 26 -269 2 -500 1 -513 -2 l-24 -6 2
-253 3 -252 445 -5 c470 -5 463 -5 557 -53 39 -20 108 -91 129 -130 39 -77 54
-148 54 -257 0 -263 -116 -420 -351 -474 -67 -15 -121 -17 -480 -13 -402 3
-457 8 -570 43 -26 8 -55 14 -66 14 -11 0 -28 7 -39 15 -10 8 -26 15 -34 15
-22 0 -147 83 -193 128 -129 123 -215 301 -247 507 -5 33 -14 91 -20 129 -15
87 -8 537 10 621 61 300 124 435 264 562 50 46 167 123 186 123 5 0 24 6 42
14 39 17 120 40 203 57 45 10 264 15 860 19 l800 5 3 275 c1 151 0 285 -3 298
l-5 22 -783 -1 c-605 -1 -807 -5 -892 -15z"/>
</g>
</svg>
